Coordinates
nRows=9
nColumns=38

# SIMM Motion File Header:
name Coordinates
datacolumns 38
datarows 9
otherdata 1
range 3.18080000000000010000 3.18880000000000010000

Units are S.I. units (second, meters, Newtons, ...)
Angles are in degrees.

endheader
time	pelvis_tilt	pelvis_list	pelvis_rotation	pelvis_tx	pelvis_ty	pelvis_tz	hip_flexion_r	hip_adduction_r	hip_rotation_r	knee_angle_r	ankle_angle_r	subtalar_angle_r	mtp_angle_r	hip_flexion_l	hip_adduction_l	hip_rotation_l	knee_angle_l	ankle_angle_l	subtalar_angle_l	mtp_angle_l	lumbar_extension	lumbar_bending	lumbar_rotation	arm_flex_r	arm_add_r	arm_rot_r	elbow_flex_r	pro_sup_r	wrist_flex_r	wrist_dev_r	arm_flex_l	arm_add_l	arm_rot_l	elbow_flex_l	pro_sup_l	wrist_flex_l	wrist_dev_l
      3.18080000000000010000	     -0.74177510741602470000	      9.46057129664385600000	      4.28166509341686120000	      0.90394549916483258000	      1.02977983384561540000	     -0.29931903285377082000	     31.73655213574345200000	     -4.86909034593450230000	      4.40133165706165560000	   -101.27879164335698000000	      7.88354759600507740000	     -0.00000000000001458743	     -0.00000000000000032446	     11.31735646722184000000	     14.31796433788299600000	     -0.12634101147913862000	    -43.59487453811090800000	     30.08416149458389200000	     -0.00000000000000327030	      0.00000000000000867328	    -19.66032103998579200000	    -11.21570285944105500000	    -16.83600706125270500000	    -21.27086227428028000000	    -21.32515683462892400000	      5.76311969022924320000	     91.83214008000891200000	    130.13938119518141000000	     -0.00000000000000187603	      0.00000000000003408198	     -5.55595026301959380000	    -27.85839304873940500000	      3.22063776900612900000	    112.20126310911968000000	     98.54521057814950800000	      0.00000000000002389496	      0.00000000000002986486
      3.18180000000000000000	     -0.79690364430583760000	      9.37774444499716430000	      4.29243828770394840000	      0.90397921700284556000	      1.03000587202009490000	     -0.29930934168010326000	     32.00372622275025200000	     -4.78013564561435710000	      4.40814135993141680000	   -101.11339441396218000000	      7.96110436495478520000	     -0.00000000000001473249	     -0.00000000000000022713	     11.08039301059482900000	     14.23506262126280900000	     -0.03084265251632987300	    -43.41341532562528700000	     30.08138250333230000000	     -0.00000000000000330825	      0.00000000000000842345	    -19.57460923107402500000	    -11.10189170843132300000	    -16.91214234012593600000	    -21.50575936435301100000	    -21.39344986345017600000	      5.75637142805016390000	     91.94941988719823200000	    130.06647301494348000000	     -0.00000000000000188351	      0.00000000000003417710	     -5.54215594107692940000	    -27.79714336499835200000	      3.09097971110012270000	    112.39379435102826000000	     98.74557407150854300000	      0.00000000000002396985	      0.00000000000002990947
      3.18280000000000030000	     -0.85264649722988861000	      9.29371838079211440000	      4.30367567082472570000	      0.90402128927493652000	      1.03023887617637430000	     -0.29930064163911085000	     32.26828219262574000000	     -4.69130622972280250000	      4.41196416022568270000	   -100.94200511017610000000	      8.04014723424778310000	     -0.00000000000001487677	     -0.00000000000000012923	     10.84194756169420500000	     14.15096268659303600000	      0.06714841690667021400	    -43.22795242839882200000	     30.07364934377655900000	     -0.00000000000000331535	      0.00000000000000816510	    -19.48663846628022600000	    -10.98645268317379800000	    -16.98664175840734800000	    -21.74378170597490700000	    -21.46224330561356900000	      5.74725685283034960000	     92.07057730774582200000	    129.99129140442844000000	     -0.00000000000000189246	      0.00000000000003427156	     -5.52936990032492480000	    -27.73439548916916000000	      2.96182568291507260000	    112.58727748128302000000	     98.95041535872484000000	      0.00000000000002404563	      0.00000000000002996204
      3.18380000000000020000	     -0.90895328637296224000	      9.20856720012462840000	      4.31540888162222290000	      0.90407166739238709000	      1.03047889957592860000	     -0.29929300093120531000	     32.53013730171017000000	     -4.60273294766527920000	      4.41277718458291180000	   -100.76464551802393000000	      8.12059517450149390000	     -0.00000000000001501993	     -0.00000000000000003125	     10.60200974807443300000	     14.06574192128161900000	      0.16764329492296864000	    -43.03853253140186300000	     30.06084995626663000000	     -0.00000000000000331484	      0.00000000000000801073	    -19.39650103656458300000	    -10.86945654675681400000	    -17.05957643944590500000	    -21.98481956027425000000	    -21.53146105329318200000	      5.73571724543985970000	     92.19532991375449200000	    129.91417131749191000000	     -0.00000000000000190230	      0.00000000000003436457	     -5.51752929316798560000	    -27.67015103075878800000	      2.83329018219963520000	    112.78153319108935000000	     99.15936487634934300000	      0.00000000000002412229	      0.00000000000003001882
      3.18480000000000010000	     -0.96577129875527190000	      9.12236195867840570000	      4.32766202270491720000	      0.90413028749687807000	      1.03072599495114030000	     -0.29928647312782836000	     32.78921085753353300000	     -4.51453555630427950000	      4.41056496677909760000	   -100.58133734126207000000	      8.20235876461130080000	     -0.00000000000001516556	      0.00000000000000006658	     10.36057198209787900000	     13.97947049264677100000	      0.27063885331505827000	    -42.84520791930162900000	     30.04287629663334500000	     -0.00000000000000329833	      0.00000000000000795373	    -19.30429393453626800000	    -10.75097267887473500000	    -17.13101254175461100000	    -22.22875901253232900000	    -21.60102680547453600000	      5.72169804696091950000	     92.32340108038172800000	    129.83544806732559000000	     -0.00000000000000191036	      0.00000000000003445997	     -5.50657488564410880000	    -27.60441663488103400000	      2.70548765427088080000	    112.97639106074000000000	     99.37205578083481300000	      0.00000000000002419872	      0.00000000000003009037
      3.18580000000000000000	     -1.02304625861889110000	      9.03517034886943550000	      4.34045135740066530000	      0.90419707057620369000	      1.03098021294529320000	     -0.29928109644281004000	     33.04542510767114300000	     -4.42682208887494970000	      4.40531963219426270000	   -100.39210224391326000000	      8.28534053561335960000	     -0.00000000000001531224	      0.00000000000000016489	     10.11763035677968700000	     13.89221106131913800000	      0.37611720713990043000	    -42.64803677688035300000	     30.01962535630151100000	     -0.00000000000000326191	      0.00000000000000786490	    -19.21011782426260300000	    -10.63106891899933800000	    -17.20101056285746200000	    -22.47548246372931000000	    -21.67086414739534200000	      5.70514874533199820000	     92.45452060874680500000	    129.75545635429941000000	     -0.00000000000000191870	      0.00000000000003455614	     -5.49645094425943630000	    -27.53720398405663900000	      2.57853252323182280000	    113.17168970140560000000	     99.58812487794263300000	      0.00000000000002427511	      0.00000000000003016493
      3.18680000000000030000	     -1.08072271475162140000	      8.94705642927359610000	      4.35378518447993020000	      0.90427192302833936000	      1.03124160123044880000	     -0.29927689333306351000	     33.29870555037831500000	     -4.33968843032033650000	      4.39704085343453150000	   -100.19696177045168000000	      8.36943549478810310000	     -0.00000000000001545212	      0.00000000000000026448	      9.87318495712144890000	     13.80401859811732000000	      0.48404551510173871000	    -42.44708310197646000000	     29.99099860607725900000	     -0.00000000000000320933	      0.00000000000000777500	    -19.11407640181854700000	    -10.50981136530493900000	    -17.26962484083545500000	    -22.72486913211783800000	    -21.74089661285185600000	      5.68602270557097800000	     92.58842522428365400000	    129.67452920907323000000	     -0.00000000000000192777	      0.00000000000003465003	     -5.48710502183695150000	    -27.46852973156289200000	      2.45253921933991090000	    113.36727674914530000000	     99.80721323438011400000	      0.00000000000002435143	      0.00000000000003026233
      3.18780000000000020000	     -1.13874467050422120000	      8.85808039847480090000	      4.36766374247924460000	      0.90435473718340931000	      1.03151020330212220000	     -0.29927387010429596000	     33.54898152697667500000	     -4.25321797081563520000	      4.38573584145175040000	    -99.99593732956194000000	      8.45453163478578060000	     -0.00000000000001558599	      0.00000000000000036424	      9.62724045729487620000	     13.71494029775883500000	      0.59437577160298560000	    -42.24241682757927700000	     29.95690257849521000000	     -0.00000000000000316419	      0.00000000000000770531	    -19.01627548848712500000	    -10.38726425068508200000	    -17.33690306375300600000	    -22.97679560116810300000	    -21.81104774561435600000	      5.66427698520149110000	     92.72485903873661100000	    129.59299692837828000000	     -0.00000000000000193839	      0.00000000000003474145	     -5.47848778325124200000	    -27.39841541578210700000	      2.32762218911463400000	    113.56300881770613000000	    100.02896674913706000000	      0.00000000000002442818	      0.00000000000003037597
      3.18880000000000010000	     -1.19705623023223920000	      8.76829840834999890000	      4.38207910208940990000	      0.90444539182603567000	      1.03178605731336460000	     -0.29927201644222884000	     33.79618683506423300000	     -4.16748130352727930000	      4.37141936855304270000	    -99.78905019623104500000	      8.54051044204171280000	     -0.00000000000001571856	      0.00000000000000046357	      9.37980672901397480000	     13.62501554925192200000	      0.70704458837716855000	    -42.03411397863508400000	     29.91724991507446100000	     -0.00000000000000314931	      0.00000000000000760944	    -18.91682211420963400000	    -10.26348987042875100000	    -17.40288578353778000000	    -23.23113637428780400000	    -21.88124115787463700000	      5.63987214792264260000	     92.86357401650791100000	    129.51118601302659000000	     -0.00000000000000194811	      0.00000000000003483146	     -5.47055283287616230000	    -27.32688738715374700000	      2.20389590357613760000	    113.75875145023851000000	    100.25303671986556000000	      0.00000000000002450505	      0.00000000000003048311
